<svg width="14" height="21" viewBox="0 0 14 21" fill="none" xmlns="http://www.w3.org/2000/svg">
<path d="M3.67421 20.9592C5.51422 20.9592 7.00759 19.4658 7.00759 17.6258V14.2925H3.67421C1.83419 14.2925 0.34082 15.7858 0.34082 17.6258C0.34082 19.4658 1.83419 20.9592 3.67421 20.9592Z" fill="#0ACF83"/>
<path d="M0.34082 10.9592C0.34082 9.11922 1.83419 7.62586 3.67421 7.62586H7.00759V14.2925H3.67421C1.83419 14.2925 0.34082 12.7992 0.34082 10.9592Z" fill="#A259FF"/>
<path d="M0.34082 4.29259C0.34082 2.45259 1.83419 0.959229 3.67421 0.959229H7.00759V7.62586H3.67421C1.83419 7.62586 0.34082 6.13259 0.34082 4.29259Z" fill="#F24E1E"/>
<path d="M7.00759 0.959229H10.3409C12.1809 0.959229 13.6743 2.45259 13.6743 4.29259C13.6743 6.13259 12.1809 7.62587 10.3409 7.62587L7.00759 7.62586V0.959229Z" fill="#FF7262"/>
<path d="M13.6743 10.9592C13.6743 12.7992 12.1809 14.2925 10.3409 14.2925C8.50085 14.2925 7.00748 12.7992 7.00748 10.9592C7.00748 9.11922 8.50085 7.62587 10.3409 7.62587C12.1809 7.62587 13.6743 9.11922 13.6743 10.9592Z" fill="#1ABCFE"/>
</svg>
