<svg width="454" height="498" viewBox="0 0 454 498" fill="none" xmlns="http://www.w3.org/2000/svg">
<path d="M100.366 13.6833V483.486C100.366 492.098 108.177 498.6 116.646 497.037L403.041 444.209C409.87 442.95 415.166 437.527 416.264 430.67L453.681 196.989C454.779 190.132 451.441 183.326 445.347 179.998L119.782 2.16536C111.036 -2.61185 100.366 3.71781 100.366 13.6833Z" fill="#F5F7F9"/>
<path d="M80.7912 125.041C79.448 122.849 78.7764 121.752 79.2422 120.921C79.7079 120.089 80.9934 120.089 83.5644 120.089H133.379C136.094 120.102 138.758 120.793 141.103 122.094C143.447 123.395 145.39 125.259 146.734 127.499L218.562 246.678C218.831 247.1 218.973 247.585 218.973 248.079C218.973 248.573 218.831 249.057 218.562 249.48L147.784 366.521C146.103 369.393 143.645 371.788 140.665 373.458C137.684 375.128 134.289 376.012 130.828 376.021H83.5509C80.9851 376.021 79.7022 376.021 79.2362 375.191C78.7702 374.361 79.4383 373.265 80.7744 371.075L153.917 251.165C154.925 249.512 155.429 248.686 155.428 247.771C155.427 246.855 154.921 246.03 153.91 244.379L80.7912 125.041Z" fill="#0F6FFF"/>
<path d="M89.4834 151.466C89.4834 148.976 91.5025 146.957 93.9932 146.957H190.83C193.32 146.957 195.339 148.976 195.339 151.466V219.154C195.339 221.644 193.32 223.663 190.83 223.663H93.9932C91.5025 223.663 89.4834 221.644 89.4834 219.154V151.466Z" fill="white"/>
<path fill-rule="evenodd" clip-rule="evenodd" d="M89.0815 217.3C89.0815 220.489 89.0815 222.084 90.0722 223.074C91.0629 224.065 92.6573 224.065 95.8462 224.065H188.971C192.16 224.065 193.755 224.065 194.745 223.074C195.736 222.084 195.736 220.489 195.736 217.3V153.321C195.736 150.132 195.736 148.537 194.745 147.547C193.755 146.556 192.16 146.556 188.971 146.556H95.8462C92.6573 146.556 91.0629 146.556 90.0722 147.547C89.0815 148.537 89.0815 150.132 89.0815 153.321V217.3ZM194.933 216.498C194.933 219.687 194.933 221.281 193.943 222.272C192.952 223.263 191.358 223.263 188.169 223.263H96.645C93.4559 223.263 91.8614 223.263 90.8707 222.272C89.88 221.281 89.8801 219.687 89.8803 216.498L89.8836 154.123C89.8838 150.934 89.8838 149.34 90.8745 148.349C91.8652 147.358 93.4595 147.358 96.6483 147.358H188.169C191.358 147.358 192.952 147.358 193.943 148.349C194.933 149.34 194.933 150.934 194.933 154.123V216.498Z" fill="#001524"/>
<path fill-rule="evenodd" clip-rule="evenodd" d="M101.75 185.284C101.601 185.448 101.348 185.46 101.184 185.31C101.02 185.161 101.009 184.908 101.158 184.744L112.921 171.836C113.149 171.585 113.546 171.592 113.766 171.85L119.547 178.618C119.774 178.884 120.185 178.881 120.409 178.613L134.972 161.138C135.166 160.905 135.508 160.867 135.748 161.051L146.928 169.627C147.113 169.769 147.366 169.783 147.565 169.661L161.922 160.862C162.111 160.746 162.358 160.805 162.473 160.994C162.589 161.183 162.53 161.43 162.341 161.546L147.515 170.633C147.316 170.755 147.062 170.742 146.877 170.6L135.871 162.156C135.631 161.972 135.289 162.01 135.095 162.243L120.417 179.857C120.193 180.125 119.782 180.128 119.555 179.862L113.746 173.061C113.526 172.803 113.129 172.797 112.901 173.048L101.75 185.284Z" fill="#001524"/>
<path fill-rule="evenodd" clip-rule="evenodd" d="M166.76 158.122C166.959 158.089 167.097 158.315 166.978 158.478L162.594 164.453C162.466 164.626 162.191 164.54 162.186 164.325L162.113 161.215L159.376 159.738C159.186 159.636 159.234 159.352 159.446 159.317L166.76 158.122Z" fill="#001524"/>
<path fill-rule="evenodd" clip-rule="evenodd" d="M103.528 198.496L102.941 197.948C104.635 196.244 106.586 194.818 108.723 193.722C113.365 191.344 118.034 191.15 122.231 193.161C126.539 195.228 132.104 195.482 137.902 193.876C142.593 192.576 146.996 190.12 148.84 187.765C150.685 185.41 153.307 183.465 155.985 182.471C159.026 181.343 161.888 181.456 164.262 182.803C166.593 184.123 169.964 182.475 172.38 180.861C174.113 179.682 175.735 178.349 177.229 176.878L177.801 177.44C176.275 178.95 174.613 180.317 172.837 181.522C169.044 184.063 166.026 184.724 163.868 183.5C161.137 181.952 158.225 182.495 156.264 183.224C153.723 184.16 151.245 186.003 149.472 188.261C147.524 190.741 142.96 193.307 138.116 194.65C132.132 196.307 126.368 196.035 121.883 193.885C117.871 191.962 113.579 192.146 109.113 194.42C107.052 195.482 105.168 196.857 103.528 198.496Z" fill="#FFD355"/>
<path d="M152.665 201.481C152.665 201.269 152.665 201.162 152.731 201.096C152.797 201.03 152.903 201.03 153.116 201.03H156.967C157.18 201.03 157.286 201.03 157.352 201.096C157.418 201.162 157.418 201.269 157.418 201.481V213.724H152.665V201.481Z" fill="#001524"/>
<path d="M158.985 198.187C158.985 197.974 158.985 197.868 159.051 197.802C159.117 197.736 159.223 197.736 159.436 197.736H163.287C163.499 197.736 163.606 197.736 163.672 197.802C163.738 197.868 163.738 197.974 163.738 198.187V213.725H158.985V198.187Z" fill="#001524"/>
<path d="M165.304 195.513C165.304 195.3 165.304 195.194 165.371 195.128C165.437 195.062 165.543 195.062 165.755 195.062H169.607C169.819 195.062 169.926 195.062 169.992 195.128C170.058 195.194 170.058 195.3 170.058 195.513V213.724H165.304V195.513Z" fill="#001524"/>
<path d="M171.625 188.789C171.625 188.576 171.625 188.47 171.692 188.404C171.758 188.338 171.864 188.338 172.076 188.338H175.928C176.14 188.338 176.247 188.338 176.313 188.404C176.379 188.47 176.379 188.576 176.379 188.789V213.726H171.625V188.789Z" fill="#001524"/>
<path fill-rule="evenodd" clip-rule="evenodd" d="M68.9765 140.474C68.9765 140.474 70.5226 140.394 70.2163 142.758C69.9101 145.123 62.7267 153.441 62.7267 153.441L58.8308 151.092L68.9765 140.474Z" fill="#FBF6EE"/>
<path fill-rule="evenodd" clip-rule="evenodd" d="M58.1942 151.177L62.807 153.959L63.0277 153.701C63.0464 153.679 64.8533 151.585 66.6735 149.23C69.1879 145.978 70.4812 143.88 70.6149 142.81C70.7433 141.811 70.5841 141.061 70.1388 140.58C69.8342 140.251 69.4037 140.067 68.9552 140.075L68.796 140.083L58.1942 151.177ZM62.6388 152.922L59.4637 151.007L69.1239 140.892C69.2878 140.925 69.4367 141.01 69.5492 141.134C69.8167 141.429 69.9117 141.974 69.8167 142.706C69.5867 144.484 64.7546 150.449 62.6388 152.922Z" fill="#001524"/>
<path fill-rule="evenodd" clip-rule="evenodd" d="M62.1465 152.04C62.1465 152.04 69.7699 144.149 69.2229 140.913C68.6759 137.676 57.285 150.691 57.285 150.691L62.1465 152.04Z" fill="white"/>
<path fill-rule="evenodd" clip-rule="evenodd" d="M56.5627 150.906L62.2682 152.491L62.4394 152.319C62.4648 152.299 64.3813 150.303 66.2096 147.936C68.7186 144.691 69.8661 142.307 69.624 140.848C69.5277 140.272 69.1706 140.091 68.966 140.032C68.5469 139.914 67.444 139.604 62.0114 145.051C59.5005 147.568 57.1945 150.186 56.9963 150.411C56.9882 150.42 56.9836 150.425 56.9827 150.426L56.5627 150.906ZM62.0238 151.59L58.0116 150.476C58.8113 149.581 60.6329 147.569 62.5816 145.618C67.4364 140.749 68.5665 140.753 68.7431 140.803C68.7819 140.814 68.8113 140.874 68.8287 140.979C69.2339 143.41 64.2052 149.299 62.0238 151.59Z" fill="#001524"/>
<path fill-rule="evenodd" clip-rule="evenodd" d="M63.2671 152.576C63.2671 152.576 67.1028 154.197 69.9114 159.707C69.9114 159.707 71.2609 161.327 73.3138 161.327C75.3668 161.327 76.1772 162.463 76.0154 162.895C75.8536 163.327 72.5595 165.135 72.7735 165.919C73.0022 166.756 75.9967 172.888 71.6755 175.192C67.2272 177.565 66.3993 177.965 66.3993 177.965C66.3993 177.965 68.1286 188.175 68.9926 188.932L78.2302 190.985C78.2302 190.985 72.1797 202.058 64.4012 201.733C56.6227 201.408 44.6848 195.738 44.6848 195.738L52.9501 191.093C52.9501 191.093 52.6827 180.991 52.0313 175.319C51.38 169.647 63.2671 152.576 63.2671 152.576Z" fill="white"/>
<path fill-rule="evenodd" clip-rule="evenodd" d="M64.3851 202.134C64.4988 202.14 64.6125 202.14 64.7275 202.14C67.9293 202.14 71.3103 200.284 74.5322 196.757C76.0796 195.05 77.4382 193.181 78.5846 191.183L78.84 190.715L69.2106 188.575C68.7064 187.808 67.6471 182.84 66.8447 178.198C67.3462 177.942 68.6716 177.256 71.864 175.554C75.998 173.348 73.9852 168.021 73.3232 166.271C73.2536 166.089 73.1934 165.928 73.168 165.843C73.2563 165.481 74.5643 164.545 75.1287 164.144L75.1609 164.121C76.0118 163.513 76.2922 163.313 76.3912 163.042C76.4915 162.768 76.422 162.428 76.1986 162.106C76.0074 161.83 75.233 160.929 73.3138 160.929C71.6286 160.929 70.4343 159.692 70.2457 159.483C68.7679 156.602 67.0105 154.787 65.7934 153.771C64.452 152.652 63.465 152.228 63.4235 152.21L63.1239 152.076L62.938 152.344C62.4485 153.046 50.9748 169.609 51.6328 175.36C52.2159 180.465 52.4954 189.286 52.5422 190.856L43.8128 195.762L44.5123 196.099C45.0031 196.332 56.6133 201.81 64.3851 202.134ZM64.4187 201.332C57.8894 201.059 48.2438 196.904 45.569 195.7L53.3461 191.309V191.067C53.3459 191.063 53.3452 191.039 53.344 190.996C53.3171 190.082 53.0395 180.634 52.4246 175.259C52.1692 173.032 54.0095 168.451 57.7449 162.018C60.1724 157.837 62.6867 154.117 63.3956 153.082C64.3211 153.578 67.2741 155.43 69.5477 159.881L69.5691 159.921L69.5972 159.956C69.6574 160.028 71.0938 161.72 73.3086 161.72C74.6206 161.72 75.2224 162.208 75.423 162.417C75.5166 162.505 75.5861 162.616 75.625 162.739C75.3165 163.003 74.9932 163.249 74.6567 163.476C73.1588 164.546 72.1891 165.307 72.3831 166.017C72.409 166.12 72.4597 166.253 72.5287 166.434C72.5415 166.468 72.5549 166.503 72.569 166.54C73.6095 169.296 74.6313 173.154 71.483 174.832C67.1096 177.165 66.2296 177.598 66.2215 177.598L65.954 177.732L66.0049 178.029C66.0089 178.057 66.4449 180.62 66.9799 183.244C68.0872 188.67 68.5366 189.064 68.7292 189.232L68.8054 189.299L77.6071 191.256C76.3606 193.329 70.948 201.605 64.4187 201.332Z" fill="#001524"/>
<path fill-rule="evenodd" clip-rule="evenodd" d="M16.1909 230.956C16.1909 230.956 10.5189 240.192 10.5189 243.758C10.5189 247.324 12.6253 253.238 28.5875 264.905C44.5497 276.573 47.9508 277.869 47.9508 277.869L46.9785 268.795C46.9785 268.795 29.3151 249.233 29.7257 247.262C30.1363 245.291 31.9137 242.458 31.9137 242.458L16.1909 230.956Z" fill="white"/>
<path fill-rule="evenodd" clip-rule="evenodd" d="M47.8092 278.246L48.4205 278.478L47.3599 268.619L47.2716 268.523C47.2288 268.478 42.8782 263.656 38.5984 258.626C30.6567 249.289 30.0937 247.625 30.1084 247.347C30.4963 245.492 32.196 242.76 32.2472 242.677L32.2483 242.676L32.4476 242.359L16.0761 230.375L15.8474 230.747C15.6134 231.128 10.1165 240.122 10.1165 243.759C10.1165 247.255 12.0063 253.284 28.3497 265.23C44.1741 276.797 47.6675 278.192 47.8092 278.246ZM13.7091 236.205C14.775 234.133 15.8516 232.297 16.3077 231.535L31.3791 242.564C30.8963 243.373 29.6699 245.539 29.3329 247.181C29.2406 247.606 29.036 248.603 37.8924 259.024C41.8766 263.712 45.9518 268.25 46.5951 268.964L47.4764 277.189C45.929 276.374 41.0982 273.551 28.8233 264.578C21.1371 258.96 10.9192 250.689 10.9192 243.755C10.9192 242.357 11.8835 239.75 13.7091 236.205Z" fill="#001524"/>
<path fill-rule="evenodd" clip-rule="evenodd" d="M119.503 217.668C119.503 217.668 123.554 220.476 125.175 218.91C126.796 217.344 134.735 189.147 134.816 187.932C134.898 186.716 132.754 185.31 132.898 181.314C133.023 177.859 129.513 175.769 129.73 175.012C129.947 174.255 132.215 174.292 133.366 175.876C134.518 177.459 134.987 177.245 134.987 177.245C134.987 177.245 134.699 168.459 134.807 166.046C134.907 163.811 136.278 163.993 136.679 164.785C137.08 165.576 138.15 174.401 138.15 174.401C138.15 174.401 141.644 174 144.884 176.674C144.884 176.674 145.929 177.209 145.641 179.411C145.354 181.612 143.733 186.721 142.616 188.666C142.616 188.666 143.373 234.264 131.165 241.283C118.957 248.302 100.698 229.394 100.698 229.394L119.503 217.668Z" fill="white"/>
<path fill-rule="evenodd" clip-rule="evenodd" d="M121.167 242.773C122.448 243.075 123.759 243.232 125.076 243.241C127.394 243.241 129.496 242.706 131.362 241.627C136.542 238.648 140.077 228.809 141.865 212.382C143.121 200.856 143.031 189.968 143.016 188.765C144.194 186.642 145.754 181.619 146.036 179.459C146.32 177.258 145.353 176.494 145.116 176.343C143.257 174.802 140.915 173.966 138.501 173.979C138.242 171.904 137.408 165.366 137.03 164.607C136.757 164.062 136.163 163.752 135.619 163.869C135.278 163.941 134.474 164.297 134.398 166.028C134.306 168.077 134.493 174.577 134.557 176.637C134.227 176.341 133.933 176.007 133.682 175.642C132.808 174.438 131.331 173.992 130.324 174.171C129.801 174.263 129.441 174.531 129.334 174.904C129.2 175.374 129.606 175.837 130.219 176.535L130.225 176.542L130.245 176.565C131.171 177.623 132.564 179.215 132.488 181.302C132.392 183.966 133.292 185.567 133.887 186.625C134.189 187.163 134.427 187.586 134.407 187.906C134.367 188.452 132.455 195.516 130.174 203.19C127.002 213.867 125.362 218.163 124.886 218.623C123.753 219.718 120.773 218.068 119.721 217.339L119.504 217.189L100.062 229.313L100.407 229.67C100.456 229.72 105.077 234.477 111.136 238.306C114.716 240.565 118.091 242.068 121.167 242.773ZM111.581 237.637C106.557 234.458 102.522 230.63 101.341 229.465L119.485 218.149C120.147 218.574 120.842 218.943 121.565 219.251C123.341 219.989 124.641 219.973 125.444 219.203C126.198 218.473 128.05 213.158 130.947 203.407C133.011 196.465 135.16 188.671 135.207 187.962C135.244 187.404 134.954 186.888 134.586 186.234C134.002 185.195 133.203 183.753 133.29 181.332C133.377 178.912 131.844 177.168 130.828 176.014C130.537 175.683 130.18 175.277 130.119 175.105C130.217 175.025 130.337 174.975 130.463 174.964C131.056 174.858 132.278 175.079 133.034 176.117C134.211 177.727 134.859 177.747 135.147 177.613L135.387 177.502L135.379 177.235C135.375 177.146 135.093 168.436 135.199 166.066C135.242 165.108 135.529 164.708 135.786 164.653C136.011 164.633 136.223 164.76 136.312 164.968C136.546 165.444 137.229 170.21 137.749 174.451L137.798 174.845L138.199 174.802C138.231 174.798 141.572 174.465 144.633 176.982L144.657 177.003L144.695 177.023C144.727 177.042 145.488 177.51 145.246 179.356C144.97 181.457 143.385 186.522 142.271 188.464L142.216 188.559V188.67C142.219 188.783 142.39 200.185 141.072 212.297C138.879 232.422 134.366 238.977 130.966 240.932C128.274 242.48 125.04 242.837 121.353 241.994C118.365 241.311 115.077 239.844 111.581 237.637Z" fill="#001524"/>
<path fill-rule="evenodd" clip-rule="evenodd" d="M100.21 386.136L101.259 397.367L91.3602 398.215L87.6315 380.205L100.21 386.136Z" fill="white"/>
<path fill-rule="evenodd" clip-rule="evenodd" d="M87.0755 379.504L91.0396 398.65L101.69 397.739L100.583 385.876L87.0755 379.504ZM91.6837 397.784L88.1863 380.916L99.834 386.401L100.824 397.001L91.6837 397.784Z" fill="#001524"/>
<path fill-rule="evenodd" clip-rule="evenodd" d="M58.6374 386.193L59.686 397.424L49.7877 398.27L46.0589 380.262L58.6374 386.193Z" fill="white"/>
<path fill-rule="evenodd" clip-rule="evenodd" d="M45.504 379.555L49.4668 398.7L60.1194 397.788L59.012 385.927L45.504 379.555ZM50.1086 397.848L46.6125 380.967L58.2602 386.465L59.2485 397.065L50.1086 397.848Z" fill="#001524"/>
<path fill-rule="evenodd" clip-rule="evenodd" d="M90.4809 396.117C90.4809 396.117 97.8087 395.488 100.694 392.206C100.694 392.206 113.943 401.924 117.094 403.574C117.094 403.574 120.883 406.087 119.186 410.071C113.749 410.378 90.5746 410.15 90.5746 410.15C90.5746 410.15 90.6989 399.051 90.4809 396.117Z" fill="#001524"/>
<path fill-rule="evenodd" clip-rule="evenodd" d="M100.296 392.257L100.441 393.384L101.036 392.416C104.668 386.503 106.188 381.732 104.908 380.261C104.576 379.88 103.918 379.542 102.667 380.089C101.085 380.78 100.211 383.066 100.069 386.882C100.013 388.676 100.089 390.473 100.296 392.257ZM102.989 380.823C103.253 380.697 103.54 380.623 103.832 380.605C104.008 380.594 104.18 380.661 104.301 380.789C105.088 381.691 104.157 385.516 100.968 390.966C100.697 387.686 100.704 381.824 102.989 380.823Z" fill="#001524"/>
<path fill-rule="evenodd" clip-rule="evenodd" d="M100.551 392.578C101.062 392.776 104.501 394.05 106.988 394.05C107.907 394.05 108.696 393.876 109.159 393.401C109.697 392.859 109.758 392.046 109.344 390.976C108.877 389.782 108.129 389.061 107.119 388.836C104.331 388.218 100.575 391.761 100.418 391.912L99.9575 392.351L100.551 392.578ZM108.589 392.844C107.653 393.787 103.964 392.931 101.466 392.059C102.532 391.16 105.101 389.214 106.94 389.625C107.682 389.791 108.221 390.33 108.589 391.275C108.885 392.02 108.883 392.547 108.589 392.844Z" fill="#001524"/>
<path fill-rule="evenodd" clip-rule="evenodd" d="M48.9095 396.175C48.9095 396.175 56.2372 395.547 59.1221 392.263C59.1221 392.263 72.372 401.982 75.5243 403.631C75.5243 403.631 79.3119 406.143 77.616 410.129C72.178 410.435 49.0031 410.15 49.0031 410.15C49.0031 410.15 49.1261 399.103 48.9095 396.175Z" fill="#001524"/>
<path fill-rule="evenodd" clip-rule="evenodd" d="M58.725 392.316L58.8694 393.443L59.4646 392.474C63.0957 386.562 64.615 381.792 63.3351 380.32C63.0034 379.939 62.3454 379.601 61.0949 380.148C59.5127 380.839 58.638 383.125 58.4963 386.941C58.4396 388.736 58.5161 390.532 58.725 392.316ZM61.4183 380.882C61.6825 380.756 61.9686 380.682 62.2608 380.664C62.4371 380.653 62.6095 380.72 62.7316 380.848C63.5167 381.75 62.5858 385.575 59.3988 391.025C59.1259 387.745 59.1313 381.883 61.4183 380.882Z" fill="#001524"/>
<path fill-rule="evenodd" clip-rule="evenodd" d="M58.9787 392.631C59.491 392.829 62.9295 394.102 65.4158 394.102C66.3346 394.102 67.1237 393.933 67.5864 393.454C68.1241 392.912 68.1869 392.099 67.771 391.029C67.3042 389.835 66.5566 389.114 65.5468 388.889C62.7596 388.271 59.0041 391.814 58.845 391.965L58.3849 392.404L58.9787 392.631ZM59.8965 392.113C59.8954 392.113 59.8943 392.113 59.8932 392.112V392.116C59.8943 392.115 59.8954 392.114 59.8965 392.113ZM67.0176 392.897C66.0818 393.84 62.3948 392.985 59.8965 392.113C60.9645 391.212 63.5275 389.272 65.3672 389.678C66.1095 389.844 66.6485 390.383 67.0176 391.327C67.3132 392.073 67.3105 392.6 67.0176 392.897Z" fill="#001524"/>
<path fill-rule="evenodd" clip-rule="evenodd" d="M101.888 326.236C100.402 336.935 101.888 386.135 101.888 386.135C98.4228 387.473 86.0128 387.74 86.0128 387.74C83.156 378.111 76.7845 340.407 76.4529 331.85C76.1212 323.294 68.4283 298.157 68.4283 298.157C68.4283 298.157 66.2296 323.835 65.1864 330.514C64.1432 337.193 59.39 389.076 59.39 389.076H45.6559C45.6559 389.076 42.4956 355.115 41.1769 344.953C39.8582 334.791 42.7149 330.509 41.1769 312.329C40.579 305.257 40.2126 294.744 39.9892 284.539C39.6388 268.506 39.6388 253.231 39.6388 253.231L95.2437 244.404C95.2437 244.404 103.375 315.538 101.888 326.236Z" fill="#FFD355"/>
<path fill-rule="evenodd" clip-rule="evenodd" d="M45.2891 389.479H59.7574L59.7855 389.106C59.8283 388.588 64.5481 337.164 65.5793 330.569C66.4379 325.068 68.0936 306.541 68.6433 300.274C70.4595 306.402 75.7785 324.858 76.046 331.86C76.3883 340.77 82.8334 378.449 85.6233 387.847L85.7102 388.14H86.0165C86.526 388.129 98.5361 387.855 102.027 386.51L102.294 386.407L102.285 386.123C102.285 386.103 102.282 386.001 102.277 385.823C102.159 381.678 100.874 336.397 102.285 326.291C103.763 315.665 95.9736 247.267 95.6419 244.361L95.5938 243.944L39.2373 252.889V253.231C39.2373 253.385 39.2413 268.694 39.5877 284.547C39.8565 296.851 40.2564 306.213 40.7767 312.365C41.6085 322.191 41.1431 328.056 40.7686 332.768L40.7678 332.779C40.4472 336.823 40.17 340.318 40.7793 345.007C42.0431 354.746 45.0377 386.782 45.2447 388.997L45.2557 389.115L45.2891 389.479ZM59.0261 388.677H46.0209C45.6772 384.981 42.8071 354.392 41.5753 344.905C40.9761 340.295 41.2503 336.836 41.5686 332.832C41.9458 328.091 42.4139 322.196 41.5766 312.299C41.0591 306.164 40.6578 296.822 40.3903 284.532C40.072 270.003 40.0399 255.929 40.0399 253.576L94.8918 244.871C95.5565 250.744 102.895 316.085 101.491 326.187C100.076 336.364 101.36 381.763 101.479 385.861C98.1231 386.961 88.1846 387.28 86.3122 387.332C83.4876 377.498 77.191 340.629 76.8526 331.837C76.5249 323.326 69.129 299.069 68.8147 298.04L68.2075 296.058L68.0309 298.123C68.0095 298.38 65.8215 323.858 64.7917 330.453C63.8033 336.784 59.4527 384.026 59.0261 388.677Z" fill="#001524"/>
<path fill-rule="evenodd" clip-rule="evenodd" d="M61.5459 255.931C61.5459 255.931 51.5888 260.045 46.8917 261.163C42.1947 262.281 39.6388 270.843 39.6388 270.843L39.6522 257.93C39.6522 257.93 60.1282 254.981 61.5459 255.931Z" fill="#001524"/>
<path fill-rule="evenodd" clip-rule="evenodd" d="M61.8175 272.6C61.8175 272.6 67.4775 290.772 68.3575 296.655L64.1834 339.185C64.1834 339.185 60.5403 323.852 61.8175 312.418C62.8152 303.482 61.8175 272.6 61.8175 272.6Z" fill="#001524"/>
<path fill-rule="evenodd" clip-rule="evenodd" d="M65.0094 153.659C65.0094 153.659 62.8882 154.684 62.6181 157.002C62.3479 159.32 62.1326 162.404 62.6181 163.97C63.1036 165.536 60.7283 162.404 58.8907 163.703C57.0531 165.001 57.7886 168.968 58.4587 168.131C58.567 167.997 56.9741 178.697 50.7885 180.826C48.1324 181.742 44.9039 164.458 45.1165 163.324C45.3292 162.19 56.5141 149.281 63.2667 152.574L65.0094 153.659Z" fill="#001524"/>
<path fill-rule="evenodd" clip-rule="evenodd" d="M46.5132 171.295C46.5132 171.295 57.4333 162.111 63.2672 152.571C63.2672 152.571 61.808 147.818 53.3006 149.196C44.7933 150.573 41.5741 160.085 43.1723 165.076C44.2877 168.567 46.5132 171.295 46.5132 171.295Z" fill="white"/>
<path fill-rule="evenodd" clip-rule="evenodd" d="M46.2009 171.555L46.459 171.864L46.7706 171.603C46.8803 171.512 57.8084 162.267 63.6088 152.788L63.7025 152.634L63.6503 152.46C63.6498 152.459 63.6491 152.457 63.648 152.454C63.6101 152.343 63.1863 151.105 61.7057 150.053C59.7223 148.64 56.8722 148.223 53.2358 148.812C49.6448 149.393 46.5687 151.505 44.5732 154.758C42.5577 158.045 41.8409 162.246 42.7904 165.211C43.9152 168.727 46.1086 171.441 46.2009 171.555ZM53.3639 149.596C54.2957 149.44 55.2385 149.359 56.1832 149.354C58.2402 149.354 59.944 149.796 61.1932 150.66C61.8927 151.128 62.4542 151.775 62.8195 152.533C57.6223 160.934 48.3994 169.126 46.5724 170.71C45.9612 169.896 44.4138 167.643 43.5539 164.959C42.6712 162.204 43.3559 158.269 45.2578 155.17C46.5818 153.011 49.0627 150.292 53.3639 149.596Z" fill="#001524"/>
<path fill-rule="evenodd" clip-rule="evenodd" d="M66.3986 177.615C66.3986 177.615 63.3774 179.044 62.2606 179.262C61.4809 179.41 60.7105 180.91 64.2414 183.088C67.7722 185.265 67.954 186.019 67.954 186.019L66.3986 177.615Z" fill="#001524"/>
<path fill-rule="evenodd" clip-rule="evenodd" d="M46.0082 193.198C46.0082 193.198 50.4645 196.6 56.4602 197.087C62.4559 197.574 69.7756 197.411 78.2295 189.309C78.2295 189.309 94.0566 194.562 101.51 201.747C108.964 208.931 121.281 216.372 121.281 216.372C121.281 216.372 120.471 225.77 108.478 239.707L98.1037 232.252L100.21 250.402C100.21 250.402 89.1643 255.264 69.2447 255.588C49.325 255.911 38.631 258.018 38.631 258.018L35.2272 241.166L33.4444 244.732C33.4444 244.732 20.1571 240.518 13.0259 229.822C13.0259 229.822 20.4808 215.562 23.5595 210.863C26.6383 206.163 35.7181 196.115 46.0082 193.198Z" fill="#FBF6EE"/>
<path fill-rule="evenodd" clip-rule="evenodd" d="M35.0694 242.386L38.3207 258.487L38.7139 258.409C38.7172 258.408 38.7307 258.406 38.7545 258.401C39.497 258.265 50.2202 256.295 69.2567 255.985C89.0279 255.667 100.266 250.819 100.377 250.769L100.645 250.65L98.6066 233.112L108.538 240.252L108.779 239.972C115.01 232.734 118.183 226.732 119.746 222.971C121.451 218.869 121.671 216.508 121.679 216.409L121.7 216.162L121.487 216.028L121.486 216.027C121.279 215.901 109.097 208.49 101.787 201.45C94.3698 194.309 78.5823 189.005 78.3552 188.928L78.3539 188.928L78.1252 188.852L77.95 189.019C69.5978 197.023 62.4947 197.174 56.491 196.688C50.6906 196.222 46.2931 192.912 46.2503 192.879L46.0898 192.757L45.8972 192.812C40.1637 194.437 35.0748 198.195 31.8155 201.06C27.7965 204.593 24.7445 208.326 23.2265 210.642C20.2602 215.167 13.1737 228.679 12.6976 229.587C12.6834 229.614 12.675 229.63 12.6729 229.634L12.5632 229.845L12.697 230.043C16.423 235.634 21.8369 239.432 25.7155 241.635C29.9163 244.018 33.2933 245.101 33.3281 245.112L33.6544 245.215L35.0694 242.386ZM38.9493 257.552L35.3944 239.942L33.2412 244.246C31.1869 243.521 19.8736 239.202 13.4914 229.801C14.4303 228.012 21.0652 215.405 23.8939 211.087C25.3865 208.816 28.3823 205.146 32.3411 201.669C35.5028 198.889 40.4111 195.257 45.924 193.644C46.7933 194.271 50.9514 197.049 56.4228 197.493C59.3223 197.728 62.7889 197.831 66.523 196.811C70.6543 195.684 74.5168 193.383 78.3245 189.772C80.2878 190.449 94.4057 195.466 101.227 202.035C108.078 208.631 119.14 215.535 120.845 216.584C120.744 217.279 120.345 219.443 118.98 222.714C116.255 229.249 111.779 235.221 108.414 239.165L97.6035 231.396L99.7808 250.146C98.965 250.475 96.3303 251.474 92.0799 252.489C87.3133 253.628 79.4814 255.018 69.242 255.186C51.604 255.473 41.0611 257.178 38.9493 257.552Z" fill="#001524"/>
<path fill-rule="evenodd" clip-rule="evenodd" d="M32.0994 223.664C32.0994 223.664 34.6994 236.49 35.4845 240.374L33.4489 244.731C33.4489 244.731 33.2871 238.789 31.5591 236.628C29.8312 234.466 32.0994 223.664 32.0994 223.664Z" fill="#001524"/>
<path fill-rule="evenodd" clip-rule="evenodd" d="M80.0487 218.322C80.0487 218.322 90.5288 228.584 97.8753 231.664L98.9225 240.688C98.9225 240.688 96.146 236.362 91.6081 234.526C87.0702 232.69 84.5839 225.235 80.0487 218.322Z" fill="#001524"/>
<path fill-rule="evenodd" clip-rule="evenodd" d="M19.1741 236.617C19.1741 236.617 26.6757 242.148 31.1159 243.839C31.1159 243.839 29.1874 246.658 29.8601 247.851C29.8601 247.851 28.1816 244.969 25.8318 243.915C23.4819 242.861 19.1741 236.617 19.1741 236.617Z" fill="#001524"/>
<path fill-rule="evenodd" clip-rule="evenodd" d="M90.3466 268.135C96.9 264.45 96.7663 257.191 96.7663 257.191L96.4052 254.865C96.4052 254.865 91.0006 267.786 90.3506 268.135" fill="#001524"/>
<path fill-rule="evenodd" clip-rule="evenodd" d="M94.4447 383.817C94.2468 383.82 94.0765 383.678 94.0435 383.483C92.02 371.411 94.2441 349.602 95.5735 336.571C95.9748 332.607 96.2971 329.475 96.376 327.786C96.6983 320.705 88.1522 253.928 88.0652 253.254C88.0372 253.032 88.194 252.83 88.4156 252.802C88.6372 252.774 88.8396 252.93 88.8677 253.152C89.2194 255.904 97.5088 320.672 97.1825 327.823C97.1049 329.534 96.7812 332.675 96.38 336.65C95.0546 349.641 92.8385 371.382 94.8433 383.346C94.8611 383.452 94.8364 383.559 94.7747 383.646C94.713 383.733 94.6193 383.792 94.5143 383.809C94.4914 383.814 94.4681 383.817 94.4447 383.817Z" fill="#001524"/>
<path fill-rule="evenodd" clip-rule="evenodd" d="M49.0745 388.683L46.0145 388.7C46.0145 388.7 42.7351 355.116 41.4164 344.954C40.0977 334.792 42.9558 330.51 41.4164 312.33C40.8186 305.258 40.4521 294.744 40.2301 284.54C41.4472 292.211 45.3364 318.615 44.0538 335.252C42.5425 354.886 49.0745 388.683 49.0745 388.683Z" fill="white"/>
<path fill-rule="evenodd" clip-rule="evenodd" d="M36.0912 211.638C37.298 210.945 38.0362 209.964 37.74 209.449C37.4438 208.934 36.2254 209.078 35.0186 209.772C33.8117 210.465 33.0735 211.445 33.3697 211.961C33.6659 212.476 34.8843 212.332 36.0912 211.638Z" fill="#001524"/>
<path fill-rule="evenodd" clip-rule="evenodd" d="M99.4867 213.788C101.14 212.833 102.227 211.62 101.914 211.077C101.6 210.535 100.006 210.869 98.3525 211.824C96.699 212.778 95.6124 213.992 95.9255 214.534C96.2387 215.077 97.8331 214.743 99.4867 213.788Z" fill="#001524"/>
<path fill-rule="evenodd" clip-rule="evenodd" d="M63.0416 242.647C63.1239 242.149 62.1786 241.578 60.9303 241.371C59.6819 241.165 58.6031 241.402 58.5208 241.901C58.4385 242.399 59.3837 242.97 60.6321 243.177C61.8805 243.383 62.9592 243.146 63.0416 242.647Z" fill="#001524"/>
<path fill-rule="evenodd" clip-rule="evenodd" d="M39.4796 219.84C39.5619 219.341 38.6167 218.77 37.3683 218.564C36.1199 218.357 35.0412 218.594 34.9588 219.093C34.8765 219.591 35.8217 220.163 37.0701 220.369C38.3185 220.575 39.3972 220.338 39.4796 219.84Z" fill="#001524"/>
<path fill-rule="evenodd" clip-rule="evenodd" d="M22.1219 229.649C22.2043 229.15 21.259 228.579 20.0106 228.373C18.7623 228.167 17.6835 228.403 17.6012 228.902C17.5188 229.4 18.4641 229.972 19.7124 230.178C20.9608 230.384 22.0396 230.147 22.1219 229.649Z" fill="#001524"/>
<path fill-rule="evenodd" clip-rule="evenodd" d="M110.777 230.246C112.43 229.291 113.517 228.078 113.204 227.535C112.89 226.993 111.296 227.327 109.642 228.282C107.989 229.236 106.902 230.45 107.215 230.993C107.529 231.535 109.123 231.201 110.777 230.246Z" fill="#001524"/>
<path fill-rule="evenodd" clip-rule="evenodd" d="M79.2895 198.484C80.943 197.529 82.0296 196.315 81.7165 195.773C81.4033 195.23 79.8089 195.565 78.1553 196.519C76.5017 197.474 75.4151 198.688 75.7283 199.23C76.0415 199.773 77.6359 199.438 79.2895 198.484Z" fill="#001524"/>
<path fill-rule="evenodd" clip-rule="evenodd" d="M92.5941 248.521C93.0167 248.058 92.2168 246.639 90.8075 245.351C89.3982 244.063 87.9131 243.393 87.4905 243.855C87.0679 244.318 87.8678 245.737 89.2771 247.025C90.6865 248.313 92.1715 248.983 92.5941 248.521Z" fill="#001524"/>
<path fill-rule="evenodd" clip-rule="evenodd" d="M117.466 220.389C117.889 219.927 117.089 218.508 115.68 217.22C114.27 215.931 112.785 215.262 112.363 215.724C111.94 216.187 112.74 217.606 114.149 218.894C115.559 220.182 117.044 220.852 117.466 220.389Z" fill="#001524"/>
<path fill-rule="evenodd" clip-rule="evenodd" d="M96.8683 204.059C97.2909 203.597 96.491 202.178 95.0817 200.889C93.6724 199.601 92.1873 198.932 91.7647 199.394C91.3421 199.856 92.142 201.275 93.5513 202.564C94.9606 203.852 96.4457 204.521 96.8683 204.059Z" fill="#001524"/>
<path fill-rule="evenodd" clip-rule="evenodd" d="M75.4439 250.999C75.6149 250.397 74.2644 249.486 72.4275 248.965C70.5906 248.444 68.963 248.51 68.792 249.112C68.621 249.715 69.9715 250.626 71.8084 251.147C73.6453 251.668 75.273 251.602 75.4439 250.999Z" fill="#001524"/>
<path fill-rule="evenodd" clip-rule="evenodd" d="M26.2563 233.162C27.9099 232.207 28.9965 230.993 28.6833 230.451C28.3701 229.908 26.7758 230.243 25.1222 231.197C23.4686 232.152 22.382 233.366 22.6952 233.908C23.0084 234.451 24.6027 234.116 26.2563 233.162Z" fill="#001524"/>
<path fill-rule="evenodd" clip-rule="evenodd" d="M56.9577 222.711C58.7149 221.964 59.9407 220.891 59.6957 220.315C59.4506 219.738 57.8275 219.877 56.0703 220.624C54.3131 221.371 53.0872 222.444 53.3323 223.02C53.5773 223.596 55.2005 223.458 56.9577 222.711Z" fill="#001524"/>
<path fill-rule="evenodd" clip-rule="evenodd" d="M65.4521 206.466C67.2093 205.719 68.4352 204.646 68.1901 204.069C67.9451 203.493 66.3219 203.631 64.5647 204.378C62.8075 205.125 61.5817 206.198 61.8267 206.774C62.0717 207.351 63.6949 207.213 65.4521 206.466Z" fill="#001524"/>
<path fill-rule="evenodd" clip-rule="evenodd" d="M55.2147 251.404C57.3594 250.492 58.8131 249.083 58.4618 248.256C58.1104 247.43 56.0869 247.499 53.9422 248.41C51.7976 249.322 50.3438 250.731 50.6952 251.558C51.0466 252.384 53.07 252.316 55.2147 251.404Z" fill="#001524"/>
<path fill-rule="evenodd" clip-rule="evenodd" d="M84.2416 241.699C85.1963 240.045 85.5305 238.451 84.988 238.137C84.4456 237.824 83.2319 238.911 82.2772 240.564C81.3225 242.218 80.9883 243.812 81.5308 244.126C82.0732 244.439 83.2869 243.352 84.2416 241.699Z" fill="#001524"/>
<path fill-rule="evenodd" clip-rule="evenodd" d="M40.8605 233.177C41.3556 232.86 41.1395 231.639 40.3777 230.449C39.616 229.26 38.5971 228.553 38.102 228.87C37.6069 229.187 37.8231 230.409 38.5848 231.598C39.3465 232.787 40.3654 233.494 40.8605 233.177Z" fill="#001524"/>
<path fill-rule="evenodd" clip-rule="evenodd" d="M56.9838 236.394C57.5187 236.052 57.0368 234.345 55.9073 232.581C54.7779 230.818 53.4286 229.666 52.8937 230.009C52.3588 230.351 52.8408 232.059 53.9702 233.822C55.0997 235.585 56.4489 236.737 56.9838 236.394Z" fill="#001524"/>
<path fill-rule="evenodd" clip-rule="evenodd" d="M78.0277 228.367C78.5626 228.024 78.0807 226.317 76.9512 224.554C75.8218 222.79 74.4726 221.639 73.9377 221.981C73.4027 222.324 73.8847 224.031 75.0141 225.794C76.1436 227.558 77.4928 228.709 78.0277 228.367Z" fill="#001524"/>
<path fill-rule="evenodd" clip-rule="evenodd" d="M47.0791 241.762C47.5729 241.445 47.3551 240.226 46.5924 239.04C45.8298 237.853 44.8112 237.149 44.3173 237.466C43.8234 237.784 44.0413 239.003 44.8039 240.189C45.5666 241.376 46.5852 242.08 47.0791 241.762Z" fill="#001524"/>
<path fill-rule="evenodd" clip-rule="evenodd" d="M26.5251 222.703C27.0202 222.386 26.8041 221.165 26.0424 219.975C25.2806 218.786 24.2618 218.079 23.7667 218.396C23.2716 218.713 23.4877 219.934 24.2494 221.124C25.0112 222.313 26.03 223.02 26.5251 222.703Z" fill="#001524"/>
<path fill-rule="evenodd" clip-rule="evenodd" d="M89.2187 209.595C89.7138 209.278 89.4976 208.057 88.7359 206.868C87.9742 205.678 86.9553 204.971 86.4602 205.288C85.9651 205.606 86.1813 206.827 86.943 208.016C87.7047 209.205 88.7236 209.912 89.2187 209.595Z" fill="#001524"/>
<path fill-rule="evenodd" clip-rule="evenodd" d="M89.7769 219.378C90.272 219.061 90.0559 217.839 89.2941 216.65C88.5324 215.461 87.5135 214.754 87.0184 215.071C86.5233 215.388 86.7395 216.609 87.5012 217.799C88.2629 218.988 89.2818 219.695 89.7769 219.378Z" fill="#001524"/>
<path fill-rule="evenodd" clip-rule="evenodd" d="M68.5408 232.956C68.8543 232.459 68.1401 231.445 66.9454 230.692C65.7507 229.939 64.5281 229.731 64.2145 230.228C63.9009 230.726 64.6152 231.74 65.8099 232.493C67.0045 233.246 68.2272 233.453 68.5408 232.956Z" fill="#001524"/>
<path fill-rule="evenodd" clip-rule="evenodd" d="M75.8089 234.973C76.0867 233.994 76.009 233.114 75.6352 233.008C75.2614 232.902 74.7332 233.61 74.4554 234.589C74.1775 235.568 74.2553 236.448 74.6291 236.554C75.0029 236.66 75.5311 235.952 75.8089 234.973Z" fill="#001524"/>
<path fill-rule="evenodd" clip-rule="evenodd" d="M41.9733 201.16C42.2511 200.18 42.1733 199.301 41.7995 199.195C41.4258 199.089 40.8976 199.796 40.6197 200.776C40.3419 201.755 40.4197 202.635 40.7935 202.741C41.1672 202.847 41.6954 202.139 41.9733 201.16Z" fill="#001524"/>
<path fill-rule="evenodd" clip-rule="evenodd" d="M101.859 220.112C102.137 219.132 102.059 218.253 101.685 218.147C101.312 218.041 100.783 218.748 100.506 219.728C100.228 220.707 100.306 221.587 100.679 221.693C101.053 221.799 101.581 221.091 101.859 220.112Z" fill="#001524"/>
<path fill-rule="evenodd" clip-rule="evenodd" d="M100.3 229.427C100.796 229.11 100.579 227.889 99.8177 226.699C99.056 225.51 98.0371 224.803 97.542 225.12C97.0469 225.437 97.2631 226.658 98.0248 227.848C98.7865 229.037 99.8054 229.744 100.3 229.427Z" fill="#001524"/>
<path fill-rule="evenodd" clip-rule="evenodd" d="M108.542 218.244C109.037 217.927 108.821 216.705 108.059 215.516C107.297 214.327 106.278 213.62 105.783 213.937C105.288 214.254 105.504 215.475 106.266 216.665C107.028 217.854 108.047 218.561 108.542 218.244Z" fill="#001524"/>
<path fill-rule="evenodd" clip-rule="evenodd" d="M48.3191 220.187C49.8831 218.313 50.761 216.468 50.2801 216.067C49.7991 215.665 48.1414 216.86 46.5774 218.734C45.0135 220.609 44.1356 222.453 44.6165 222.855C45.0975 223.256 46.7552 222.062 48.3191 220.187Z" fill="#001524"/>
<path fill-rule="evenodd" clip-rule="evenodd" d="M43.0093 251.724C43.7915 250.786 44.0358 249.701 43.5548 249.3C43.0739 248.898 42.0499 249.333 41.2677 250.271C40.4854 251.208 40.2412 252.293 40.7222 252.695C41.2031 253.096 42.2271 252.661 43.0093 251.724Z" fill="#001524"/>
<path fill-rule="evenodd" clip-rule="evenodd" d="M75.7572 211.829C77.395 209.866 78.0974 207.753 77.326 207.109C76.5547 206.466 74.6018 207.535 72.964 209.498C71.3262 211.461 70.6238 213.574 71.3952 214.218C72.1665 214.861 74.1195 213.792 75.7572 211.829Z" fill="#001524"/>
<path fill-rule="evenodd" clip-rule="evenodd" d="M51.3447 204.295C52.9087 202.421 53.7866 200.576 53.3057 200.175C52.8247 199.773 51.167 200.967 49.6031 202.842C48.0391 204.716 47.1612 206.561 47.6421 206.963C48.1231 207.364 49.7808 206.17 51.3447 204.295Z" fill="#001524"/>
<path fill-rule="evenodd" clip-rule="evenodd" d="M122.667 219.673C122.667 219.673 126.916 220.743 128.897 218.322C130.569 216.276 129.313 207.445 129.313 207.445C129.313 207.445 125.577 216.919 122.667 219.673Z" fill="#001524"/>
<path d="M19.8578 412.54H165.574V413.342H19.8578V412.54Z" fill="#001524"/>
<path d="M168.212 412.54H181.619V413.342H168.212V412.54Z" fill="#001524"/>
<path d="M49.0735 407.605H77.221V408.407H49.0735V407.605Z" fill="white"/>
<path d="M90.4556 407.605H118.603V408.407H90.4556V407.605Z" fill="white"/>
<path fill-rule="evenodd" clip-rule="evenodd" d="M68.4934 161.315C68.7746 161.179 68.8585 160.771 68.6808 160.404C68.5031 160.037 68.131 159.85 67.8498 159.986C67.5686 160.122 67.4847 160.53 67.6624 160.897C67.8401 161.264 68.2122 161.451 68.4934 161.315Z" fill="#001524"/>
<path fill-rule="evenodd" clip-rule="evenodd" d="M61.1274 167.079C61.0445 167.079 60.9637 167.053 60.896 167.005C60.773 166.92 59.6816 166.137 59.2911 165.359C59.1914 165.161 59.271 164.92 59.469 164.82C59.6669 164.72 59.9083 164.8 60.008 164.998C60.2648 165.507 61.0699 166.147 61.3601 166.35C61.5028 166.451 61.5639 166.632 61.511 166.799C61.4581 166.965 61.3035 167.079 61.1287 167.079H61.1274Z" fill="#001524"/>
<path fill-rule="evenodd" clip-rule="evenodd" d="M59.0724 166.858C59.1186 167.035 59.2779 167.158 59.4603 167.158C59.4945 167.159 59.5286 167.155 59.5619 167.147C59.776 167.091 59.9041 166.872 59.8481 166.658C59.5138 165.381 60.2881 164.749 60.4379 164.642C60.5 164.628 60.5574 164.598 60.6051 164.555C60.7723 164.41 60.7903 164.157 60.6452 163.99C60.5024 163.832 60.2664 163.801 60.0875 163.916C59.5753 164.184 58.6538 165.253 59.0724 166.858Z" fill="#001524"/>
<path fill-rule="evenodd" clip-rule="evenodd" d="M65.1659 157.859C65.2252 158.014 65.3738 158.117 65.5398 158.117C65.6406 158.118 65.738 158.081 65.8126 158.013C66.7916 157.125 67.7078 157.519 67.8723 157.602C67.9139 157.65 67.9667 157.688 68.0261 157.711C68.2322 157.792 68.465 157.691 68.5463 157.484C68.6209 157.284 68.5366 157.059 68.3484 156.956C67.8776 156.627 66.4974 156.306 65.2723 157.418C65.1489 157.529 65.1067 157.704 65.1659 157.859Z" fill="#001524"/>
<path fill-rule="evenodd" clip-rule="evenodd" d="M69.7504 170.419C68.4778 170.443 67.2362 170.026 66.2356 169.239C66.12 169.151 66.0612 169.007 66.0819 168.863C66.1025 168.72 66.1994 168.598 66.3351 168.546C66.4708 168.494 66.6241 168.519 66.7358 168.612C69.0094 170.424 71.9919 169.217 72.0213 169.203C72.2245 169.124 72.4537 169.222 72.5373 169.423C72.6209 169.625 72.5284 169.856 72.3289 169.944C71.5052 170.257 70.6315 170.418 69.7504 170.419Z" fill="#001524"/>
<path d="M4.91745 180.071C2.61009 176.5 1.45642 174.714 1.8491 172.888C2.24177 171.061 4.02745 169.908 7.59882 167.6L14.2278 163.318C17.7992 161.01 19.5849 159.857 21.4111 160.249C23.2374 160.642 24.3911 162.428 26.6985 165.999L30.9813 172.628C33.2886 176.199 34.4423 177.985 34.0496 179.811C33.657 181.638 31.8713 182.791 28.2999 185.099L21.6709 189.381C18.0995 191.689 16.3139 192.842 14.4876 192.45C12.6613 192.057 11.5076 190.271 9.20026 186.7L4.91745 180.071Z" fill="#001524"/>
<path d="M183.671 134.867C185.623 131.089 186.6 129.201 188.38 128.634C190.16 128.067 192.048 129.043 195.825 130.996L215.497 141.164C219.274 143.117 221.162 144.093 221.729 145.873C222.296 147.653 221.32 149.541 219.367 153.318L215.743 160.329C213.791 164.106 212.815 165.995 211.035 166.562C209.255 167.129 207.366 166.152 203.589 164.2L183.918 154.032C180.141 152.079 178.252 151.103 177.685 149.323C177.118 147.543 178.095 145.655 180.047 141.878L183.671 134.867Z" fill="#001524"/>
<path d="M199.016 138.705C199.005 138.554 198.999 138.479 199.046 138.448C199.093 138.417 199.16 138.452 199.295 138.521L201.9 139.868C202.042 139.942 202.163 140.05 202.25 140.181C202.337 140.313 202.389 140.463 202.398 140.616L202.934 148.792C202.937 148.821 202.931 148.851 202.918 148.876C202.904 148.902 202.884 148.924 202.858 148.939L195.992 153.147C195.826 153.252 195.633 153.311 195.432 153.318C195.231 153.325 195.03 153.279 194.848 153.186L192.375 151.908C192.241 151.839 192.174 151.804 192.172 151.748C192.17 151.692 192.235 151.653 192.364 151.574L199.431 147.279C199.529 147.22 199.577 147.19 199.602 147.143C199.627 147.095 199.623 147.038 199.614 146.924L199.016 138.705Z" fill="white"/>
<path d="M203.538 142.937C203.532 142.862 203.611 142.811 203.677 142.845L205.738 143.91C205.844 143.967 205.934 144.048 205.999 144.147C206.065 144.246 206.103 144.359 206.11 144.474L206.515 150.664C206.516 150.689 206.511 150.714 206.5 150.736C206.489 150.757 206.472 150.776 206.45 150.789L201.269 153.976C201.143 154.052 200.997 154.095 200.845 154.099C200.694 154.103 200.542 154.068 200.405 153.999L198.438 152.982C198.371 152.948 198.368 152.854 198.432 152.815L203.915 149.487C203.976 149.45 204.012 149.381 204.006 149.309L203.538 142.937Z" fill="white"/>
<path d="M195.526 138.797C195.521 138.722 195.599 138.67 195.666 138.705L197.727 139.77C197.833 139.826 197.924 139.908 197.989 140.007C198.054 140.106 198.092 140.218 198.099 140.334L198.506 146.526C198.508 146.55 198.502 146.575 198.491 146.597C198.48 146.619 198.463 146.637 198.442 146.65L193.255 149.835C193.129 149.913 192.982 149.956 192.83 149.96C192.678 149.964 192.525 149.928 192.389 149.856L190.426 148.842C190.36 148.807 190.357 148.714 190.421 148.675L195.901 145.345C195.962 145.308 195.998 145.239 195.992 145.168L195.526 138.797Z" fill="white"/>
<path d="M220.238 217.329L217.786 218.07L218.957 220.349C218.981 220.394 218.996 220.444 219.001 220.495C219.006 220.546 219.001 220.598 218.986 220.647C218.97 220.696 218.945 220.742 218.912 220.782C218.879 220.821 218.839 220.854 218.793 220.877C218.747 220.901 218.697 220.915 218.645 220.919C218.594 220.923 218.542 220.916 218.493 220.9C218.445 220.884 218.399 220.858 218.361 220.824C218.322 220.79 218.29 220.749 218.267 220.703L216.884 218.01C216.858 217.96 216.844 217.904 216.842 217.847C216.839 217.791 216.85 217.734 216.872 217.682C216.894 217.63 216.928 217.583 216.97 217.545C217.012 217.507 217.062 217.479 217.117 217.462L220.014 216.587C220.113 216.557 220.219 216.568 220.31 216.617C220.4 216.665 220.468 216.748 220.497 216.846C220.527 216.945 220.517 217.051 220.468 217.142C220.419 217.232 220.337 217.3 220.238 217.329ZM227.562 221.896L226.179 219.204C226.156 219.159 226.124 219.118 226.085 219.085C226.046 219.053 226.001 219.028 225.953 219.012C225.904 218.997 225.853 218.991 225.802 218.995C225.752 218.999 225.702 219.013 225.657 219.037C225.566 219.084 225.497 219.165 225.465 219.263C225.434 219.361 225.443 219.467 225.49 219.559L226.66 221.837L224.208 222.578C224.158 222.592 224.112 222.615 224.072 222.647C224.031 222.679 223.998 222.719 223.973 222.764C223.948 222.809 223.933 222.859 223.927 222.91C223.922 222.962 223.927 223.013 223.942 223.063C223.957 223.112 223.981 223.158 224.014 223.198C224.047 223.237 224.087 223.27 224.133 223.294C224.179 223.318 224.229 223.333 224.28 223.337C224.331 223.341 224.383 223.335 224.432 223.319L227.33 222.444C227.384 222.428 227.434 222.4 227.477 222.362C227.519 222.324 227.552 222.277 227.574 222.225C227.597 222.172 227.607 222.116 227.605 222.059C227.603 222.002 227.588 221.947 227.562 221.896ZM225.58 216.351C225.543 216.317 225.499 216.29 225.451 216.272C225.404 216.254 225.353 216.246 225.302 216.248C225.251 216.249 225.201 216.261 225.155 216.282C225.109 216.304 225.067 216.334 225.032 216.371L218.847 223.008C218.812 223.045 218.785 223.089 218.767 223.137C218.749 223.184 218.741 223.235 218.743 223.286C218.745 223.337 218.756 223.387 218.778 223.433C218.799 223.48 218.829 223.522 218.866 223.556C218.899 223.587 218.937 223.611 218.979 223.629C219.052 223.66 219.133 223.668 219.211 223.651C219.289 223.635 219.36 223.594 219.414 223.536L225.6 216.899C225.634 216.862 225.661 216.818 225.679 216.77C225.697 216.723 225.705 216.672 225.703 216.621C225.701 216.57 225.69 216.52 225.668 216.474C225.647 216.428 225.617 216.386 225.58 216.351Z" fill="#001524"/>
<path d="M205.202 198.244C206.203 197.948 206.776 196.896 206.48 195.895L205.945 194.082L204.131 194.617C203.13 194.913 202.558 195.965 202.853 196.966C203.149 197.967 204.201 198.539 205.202 198.244Z" fill="white" fill-opacity="0.7"/>
<path d="M201.782 193.339C201.487 192.338 202.059 191.286 203.06 190.99L204.874 190.455L205.945 194.082L204.131 194.617C203.13 194.913 202.078 194.34 201.782 193.339Z" fill="white" fill-opacity="0.85"/>
<path d="M200.711 189.712C200.416 188.711 200.988 187.659 201.989 187.364L203.803 186.828L204.874 190.455L203.06 190.99C202.059 191.286 201.007 190.713 200.711 189.712Z" fill="white"/>
<path d="M203.803 186.828L205.616 186.293C206.617 185.997 207.67 186.57 207.965 187.571C208.261 188.572 207.688 189.624 206.687 189.92L204.874 190.455L203.803 186.828Z" fill="white" fill-opacity="0.8"/>
<path d="M209.036 191.198C209.332 192.199 208.759 193.251 207.758 193.546C206.757 193.842 205.705 193.269 205.409 192.268C205.114 191.267 205.686 190.215 206.687 189.92C207.688 189.624 208.74 190.197 209.036 191.198Z" fill="white" fill-opacity="0.7"/>
<path d="M19.8322 172.521C19.8322 172.521 20.569 175.914 20.6278 176.19C20.4649 175.966 16.8353 171.202 16.8353 171.202C15.282 172.094 15.0888 173.681 15.3221 175.105C15.3221 175.105 15.8667 178.617 15.9105 178.916C15.7754 178.697 13.9658 175.93 13.9658 175.93C13.047 174.55 11.2348 174.43 10.1743 175.04L15.9405 182.104C17.5646 181.162 17.8091 179.555 17.5956 178.12C17.5956 178.12 17.1174 175.02 17.0915 174.881C17.1607 174.986 20.6287 179.41 20.6287 179.41C22.2628 178.472 22.5477 176.933 22.3699 175.53L21.4209 168.578C19.8133 169.5 19.596 171.093 19.8336 172.522L19.8322 172.521Z" fill="white"/>
<path d="M3.68722 206.618C3.82921 206.825 3.8834 207.08 3.83796 207.327C3.79252 207.574 3.65114 207.793 3.44474 207.936C3.23744 208.078 2.98233 208.132 2.73526 208.087C2.48819 208.041 2.26926 207.899 2.12639 207.693C1.98459 207.485 1.93063 207.231 1.97631 206.984C2.02199 206.737 2.16358 206.518 2.37013 206.375L3.15024 205.838L3.68722 206.618ZM4.08068 206.347C3.93892 206.14 3.88495 205.885 3.93057 205.639C3.97619 205.392 4.11768 205.173 4.32412 205.03C4.53123 204.888 4.78608 204.834 5.03295 204.88C5.27981 204.925 5.49862 205.067 5.64152 205.273L6.98675 207.227C7.12865 207.435 7.18274 207.69 7.1372 207.936C7.09167 208.183 6.9502 208.402 6.74374 208.545C6.53649 208.687 6.28152 208.741 6.03457 208.695C5.78763 208.65 5.56879 208.508 5.42591 208.302L4.08068 206.347ZM2.70401 202.677C2.49686 202.818 2.24205 202.872 1.99521 202.827C1.74837 202.781 1.52958 202.64 1.38661 202.434C1.24471 202.226 1.19061 201.971 1.23615 201.725C1.28169 201.478 1.42315 201.259 1.62962 201.116C1.83687 200.974 2.09184 200.92 2.33878 200.966C2.58573 201.011 2.80456 201.153 2.94744 201.359L3.48443 202.139L2.70401 202.677ZM2.97484 203.07C3.18204 202.928 3.43694 202.874 3.68383 202.92C3.93072 202.965 4.14953 203.107 4.29246 203.313C4.43424 203.52 4.48824 203.775 4.44267 204.022C4.39709 204.269 4.25565 204.488 4.04924 204.631L2.09525 205.976C1.88805 206.118 1.63311 206.172 1.38614 206.126C1.13918 206.081 0.920286 205.939 0.777325 205.733C0.635508 205.526 0.581515 205.271 0.627151 205.024C0.672786 204.777 0.814337 204.558 1.02086 204.415L2.97484 203.07ZM6.64548 201.694C6.50366 201.486 6.44967 201.231 6.4953 200.984C6.54094 200.737 6.68249 200.519 6.88901 200.376C7.0962 200.234 7.35115 200.18 7.59812 200.225C7.84508 200.271 8.06397 200.412 8.20693 200.619C8.34875 200.826 8.40274 201.081 8.35711 201.328C8.31147 201.575 8.16992 201.794 7.9634 201.937L7.18267 202.474L6.64548 201.694ZM6.25295 201.964C6.3948 202.171 6.44878 202.426 6.40309 202.673C6.35739 202.92 6.21573 203.139 6.0091 203.282C5.80194 203.424 5.54707 203.477 5.30022 203.432C5.05337 203.386 4.83462 203.245 4.6918 203.038L3.34679 201.084C3.20482 200.877 3.15066 200.622 3.19614 200.375C3.24163 200.128 3.38305 199.91 3.58949 199.767C3.79673 199.625 4.05181 199.57 4.2989 199.616C4.54599 199.662 4.76498 199.803 4.90793 200.01L6.25295 201.964ZM7.62879 205.635C7.83604 205.493 8.09111 205.439 8.33821 205.484C8.5853 205.53 8.80428 205.671 8.94724 205.878C9.08921 206.085 9.14328 206.34 9.09762 206.587C9.05196 206.834 8.91029 207.053 8.70361 207.196C8.49639 207.338 8.24144 207.392 7.99454 207.346C7.74763 207.301 7.52887 207.159 7.38609 206.952L6.84868 206.172L7.62879 205.635ZM7.35859 205.242C7.15132 205.384 6.8963 205.438 6.64934 205.392C6.40238 205.347 6.1836 205.205 6.04086 204.998C5.89904 204.791 5.845 204.536 5.89056 204.289C5.93612 204.043 6.07758 203.824 6.28399 203.681L8.23829 202.336C8.4454 202.194 8.7003 202.14 8.94724 202.185C9.19418 202.231 9.41305 202.372 9.556 202.579C9.69805 202.786 9.75222 203.041 9.70666 203.288C9.6611 203.535 9.51952 203.754 9.31289 203.897L7.35859 205.242Z" fill="#001524"/>
</svg>
