<svg width="112" height="30" viewBox="0 0 112 30" fill="none" xmlns="http://www.w3.org/2000/svg">
<g clip-path="url(#clip0_412_4989)">
<path d="M5.93426 1.40063C5.78584 1.15839 5.71163 1.03728 5.76309 0.945396C5.81455 0.853516 5.95659 0.853516 6.24069 0.853516H11.745C12.045 0.854866 12.3394 0.931255 12.5984 1.07499C12.8575 1.21873 13.0721 1.42474 13.2207 1.67229L21.1574 14.841C21.187 14.8877 21.2028 14.9412 21.2028 14.9958C21.2028 15.0504 21.187 15.1039 21.1574 15.1506L13.3367 28.0832C13.1509 28.4005 12.8794 28.6652 12.55 28.8496C12.2207 29.0341 11.8455 29.1318 11.4631 29.1329H6.2392C5.95567 29.1329 5.81392 29.1329 5.76244 29.0411C5.71095 28.9495 5.78476 28.8284 5.93241 28.5863L14.0143 15.3368C14.1257 15.1542 14.1814 15.0629 14.1813 14.9618C14.1812 14.8606 14.1253 14.7694 14.0136 14.587L5.93426 1.40063Z" fill="#0F6FFF"/>
<path d="M17.1194 4.55979C17.046 4.44007 17.1321 4.28613 17.2726 4.28613H21.6273C21.8523 4.28908 22.0727 4.34778 22.2666 4.4564C22.4605 4.56502 22.6211 4.7198 22.7327 4.90547L28.7404 14.8778C28.7647 14.9177 28.7774 14.9629 28.7774 15.009C28.7774 15.0551 28.7647 15.1003 28.7404 15.1402L22.8488 24.9182C22.7038 25.1545 22.4966 25.3509 22.2476 25.488C21.9985 25.6251 21.7162 25.6982 21.4282 25.7004H17.2718C17.1315 25.7004 17.0453 25.5468 17.1184 25.4271L23.3918 15.1548C23.462 15.0395 23.462 14.8946 23.3912 14.7795L17.1194 4.55979Z" fill="#0F6FFF"/>
<path d="M0.196551 4.55974C0.123136 4.44001 0.209288 4.28613 0.34973 4.28613H4.70454C4.92984 4.28804 5.15066 4.34627 5.3447 4.455C5.53875 4.56373 5.69921 4.7191 5.80993 4.90547L11.8232 14.8778C11.8475 14.9177 11.8602 14.9629 11.8602 15.009C11.8602 15.0551 11.8475 15.1003 11.8232 15.1402L5.92046 24.9182C5.7777 25.1574 5.57023 25.3561 5.31954 25.4936C5.06885 25.631 4.78401 25.7024 4.49452 25.7004H0.348911C0.208645 25.7004 0.122465 25.5468 0.195527 25.4271L6.46367 15.1546C6.53395 15.0395 6.53379 14.8946 6.46326 14.7796L0.196551 4.55974Z" fill="#0F6FFF"/>
<path d="M44.4331 12.171C44.4177 11.9111 44.3474 11.6574 44.227 11.4264C44.1066 11.1955 43.939 10.9926 43.7349 10.831C43.3225 10.5097 42.7367 10.3482 41.9772 10.3465C41.5489 10.3348 41.1219 10.4012 40.7171 10.5423C40.4188 10.6466 40.1567 10.8345 39.9621 11.0835C39.7969 11.3076 39.7067 11.5782 39.7044 11.8566C39.6895 12.0795 39.7405 12.3017 39.8512 12.4957C39.9689 12.6915 40.1303 12.8574 40.3229 12.9802C40.5577 13.1326 40.8105 13.2555 41.0754 13.3461C41.3994 13.4581 41.7298 13.5502 42.0649 13.6219L43.4488 13.9234C44.1771 14.0729 44.8859 14.3046 45.5619 14.614C46.1295 14.8722 46.6517 15.2203 47.1083 15.6449C47.5181 16.0323 47.8414 16.5022 48.0565 17.0236C48.28 17.5788 48.393 18.1723 48.389 18.7708C48.4093 19.7034 48.1391 20.6193 47.6159 21.3916C47.0664 22.1532 46.3044 22.736 45.4253 23.0668C44.326 23.4813 43.1568 23.6789 41.9824 23.6491C40.7793 23.6757 39.5824 23.47 38.457 23.0436C37.504 22.6887 36.6828 22.0501 36.1043 21.2139C35.5476 20.3891 35.2615 19.3471 35.2461 18.0879H38.9751C38.9893 18.5483 39.1341 18.9951 39.3925 19.3764C39.6541 19.732 40.0117 20.0055 40.4233 20.165C40.9034 20.3481 41.4146 20.4356 41.9283 20.4227C42.3851 20.4346 42.8401 20.3629 43.2709 20.2114C43.6044 20.0957 43.9 19.8917 44.1266 19.6211C44.3232 19.3752 44.4312 19.0702 44.4331 18.7553C44.4315 18.4725 44.3313 18.1991 44.1498 17.9822C43.9147 17.7303 43.6246 17.5363 43.3018 17.4153C42.8314 17.2276 42.3461 17.0794 41.8511 16.972L40.1656 16.5777C38.7706 16.2582 37.672 15.7428 36.8697 15.0315C36.0672 14.3203 35.6687 13.3496 35.6739 12.1195C35.648 11.1818 35.9296 10.2615 36.4753 9.49863C37.0505 8.72188 37.8253 8.11541 38.7174 7.74368C39.7508 7.30858 40.8639 7.09439 41.9851 7.11488C43.1029 7.08895 44.2134 7.30522 45.2399 7.74884C46.1067 8.12711 46.8495 8.74148 47.3839 9.52183C47.8973 10.3084 48.1662 11.2293 48.1571 12.1684L44.4331 12.171Z" fill="#011F32"/>
<path d="M56.9604 11.3668V14.2015H49.335V11.3668H56.9604ZM50.9327 8.47021H54.7803V19.6545C54.7722 19.8508 54.8112 20.0459 54.8937 20.2241C54.9646 20.3634 55.0836 20.4723 55.2288 20.5307C55.3928 20.5948 55.5678 20.6265 55.7441 20.6236C55.9006 20.6221 56.0566 20.6074 56.2106 20.5797C56.378 20.5513 56.5016 20.5257 56.5868 20.505L57.1692 23.2831C56.9836 23.3345 56.7259 23.4015 56.396 23.4789C56.0039 23.5657 55.6045 23.6158 55.2029 23.6282C54.4161 23.6866 53.6258 23.5787 52.8835 23.3113C52.2755 23.0858 51.7584 22.6666 51.4121 22.1182C51.0536 21.5008 50.8826 20.7927 50.92 20.0797L50.9327 8.47021Z" fill="#011F32"/>
<path d="M58.7051 23.4584V11.3669H62.4443V13.5703H62.5706C62.7278 12.8752 63.1057 12.2495 63.6478 11.787C64.1436 11.3987 64.7577 11.1922 65.3873 11.202C65.5717 11.2027 65.7559 11.2147 65.9388 11.2381C66.1131 11.2602 66.2854 11.2956 66.4541 11.3437V14.6964C66.2194 14.6219 65.9776 14.5718 65.7327 14.547C65.4703 14.5124 65.206 14.4935 64.9415 14.4903C64.5116 14.4847 64.0875 14.5894 63.7096 14.7944C63.3512 14.9906 63.0541 15.2823 62.8515 15.6371C62.6385 16.0232 62.5318 16.4589 62.5422 16.8998V23.4584H58.7051Z" fill="#011F32"/>
<path d="M69.7549 9.95706C69.2351 9.96786 68.7318 9.77448 68.353 9.41846C68.1698 9.25527 68.0231 9.05519 67.9229 8.83134C67.8224 8.60751 67.7705 8.36496 67.7705 8.11963C67.7705 7.87431 67.8224 7.63178 67.9229 7.40793C68.0231 7.18408 68.1698 6.984 68.353 6.82081C68.735 6.47422 69.2326 6.28223 69.7485 6.28223C70.2643 6.28223 70.7617 6.47422 71.1439 6.82081C71.3255 6.98488 71.4709 7.18524 71.5703 7.40897C71.6698 7.63271 71.7212 7.87482 71.7212 8.11963C71.7212 8.36447 71.6698 8.60658 71.5703 8.8303C71.4709 9.05403 71.3255 9.25441 71.1439 9.41846C70.7696 9.77348 70.2706 9.96694 69.7549 9.95706ZM67.8169 23.4582V11.3667H71.6671V23.4582H67.8169Z" fill="#011F32"/>
<path d="M78.3007 23.6284C77.4405 23.6404 76.5953 23.4023 75.8679 22.9429C75.0971 22.434 74.4901 21.7126 74.1207 20.8659C73.6533 19.7792 73.4316 18.6027 73.4713 17.4204C73.4713 15.9978 73.6963 14.8279 74.1466 13.9105C74.5243 13.0687 75.1408 12.3564 75.9195 11.8617C76.6316 11.4261 77.4506 11.1969 78.2852 11.1994C78.8467 11.1869 79.4036 11.3023 79.9139 11.537C80.3405 11.7372 80.7212 12.0232 81.0324 12.3771C81.3091 12.6938 81.5344 13.0521 81.6998 13.4389H81.7797V7.33643H85.6271V23.4584H81.8183V21.4998H81.6998C81.5285 21.8847 81.2942 22.2383 81.0065 22.5461C80.6901 22.8782 80.3085 23.1414 79.8855 23.3191C79.3847 23.5319 78.8448 23.6374 78.3007 23.6284ZM79.6381 20.6237C80.0713 20.6345 80.4944 20.4933 80.8339 20.2243C81.1909 19.9298 81.4586 19.5415 81.607 19.1032C81.7934 18.5569 81.8807 17.9818 81.8647 17.4049C81.8794 16.8247 81.7921 16.2464 81.607 15.6963C81.4597 15.2625 81.1916 14.8798 80.8339 14.5934C80.4882 14.334 80.065 14.1987 79.633 14.2094C79.1962 14.1965 78.7684 14.3349 78.4218 14.6011C78.07 14.8972 77.8107 15.2881 77.6745 15.7273C77.4926 16.2728 77.4055 16.8454 77.4168 17.4204C77.4048 17.997 77.4921 18.5715 77.6745 19.1187C77.8164 19.5549 78.077 19.9431 78.427 20.2397C78.7731 20.5058 79.2018 20.6417 79.6381 20.6237Z" fill="#011F32"/>
<path d="M93.4947 23.6853C92.3586 23.7186 91.2325 23.4632 90.2218 22.9431C89.3178 22.4558 88.5822 21.7067 88.1112 20.7939C87.6004 19.7583 87.3517 18.6133 87.3871 17.4592C87.3585 16.3228 87.6108 15.1969 88.1215 14.1812C88.5917 13.2667 89.3156 12.5071 90.2063 11.9933C91.1755 11.4561 92.2711 11.1891 93.3787 11.2202C94.1822 11.2048 94.982 11.3349 95.7393 11.6042C96.4354 11.8603 97.067 12.2658 97.5895 12.7922C98.1264 13.3458 98.5392 14.0073 98.8008 14.7327C99.1061 15.5811 99.2554 16.4778 99.2415 17.3793V18.3406H88.7272V16.1063H95.6516C95.6529 15.7219 95.5525 15.344 95.3604 15.011C95.1758 14.6946 94.9087 14.4344 94.5874 14.2585C94.2329 14.0777 93.8401 13.9849 93.4423 13.988C93.0443 13.9912 92.6531 14.0902 92.3014 14.2766C91.9631 14.4637 91.6808 14.7376 91.4833 15.07C91.2859 15.4024 91.1804 15.7815 91.1779 16.1681V18.4436C91.168 18.8905 91.2681 19.333 91.4692 19.7321C91.6503 20.094 91.9335 20.395 92.2835 20.598C92.6779 20.8136 93.1228 20.9196 93.572 20.9047C93.8866 20.9085 94.2 20.8616 94.4997 20.7655C94.7651 20.678 95.0091 20.5358 95.2161 20.3481C95.4182 20.1617 95.572 19.9292 95.6646 19.6703L99.2002 19.7734C99.0662 20.5335 98.7338 21.2447 98.2364 21.8349C97.7078 22.4443 97.0366 22.9134 96.2831 23.2009C95.3931 23.5389 94.4465 23.7035 93.4947 23.6853Z" fill="#011F32"/>
<path d="M111.542 15.0571L108.004 15.1524C107.969 14.9045 107.866 14.6714 107.705 14.4798C107.534 14.2777 107.318 14.1188 107.074 14.0159C106.746 13.8888 106.395 13.8318 106.044 13.8486C105.693 13.8655 105.349 13.9559 105.035 14.1139C104.897 14.1771 104.779 14.2791 104.697 14.4076C104.616 14.5362 104.573 14.6857 104.574 14.838C104.572 14.9552 104.597 15.0714 104.646 15.1776C104.696 15.2839 104.769 15.3775 104.86 15.4513C105.175 15.6728 105.538 15.8159 105.919 15.8688L108.238 16.3095C109.441 16.5414 110.339 16.9245 110.934 17.4589C111.231 17.7271 111.466 18.057 111.623 18.4256C111.78 18.7941 111.854 19.1923 111.841 19.5927C111.852 20.3775 111.592 21.1421 111.104 21.7573C110.579 22.4004 109.894 22.8937 109.117 23.1876C108.199 23.5427 107.221 23.7177 106.236 23.7029C104.518 23.7029 103.158 23.3474 102.157 22.6362C101.682 22.312 101.283 21.8881 100.989 21.394C100.695 20.9001 100.512 20.3477 100.453 19.7756L104.254 19.6802C104.29 19.8816 104.366 20.0735 104.479 20.2439C104.592 20.414 104.74 20.5592 104.911 20.6699C105.317 20.9137 105.784 21.0337 106.257 21.0152C106.676 21.0341 107.093 20.9389 107.463 20.7394C107.6 20.6717 107.717 20.5678 107.8 20.4388C107.883 20.31 107.93 20.1608 107.934 20.0076C107.933 19.8764 107.9 19.7476 107.836 19.6328C107.773 19.5179 107.682 19.4209 107.571 19.3505C107.232 19.1476 106.855 19.0152 106.463 18.9613L104.347 18.5618C103.136 18.3436 102.234 17.9365 101.641 17.3403C101.346 17.0407 101.116 16.6836 100.964 16.2914C100.813 15.8991 100.743 15.4799 100.76 15.0596C100.737 14.3195 100.964 13.5932 101.404 12.998C101.885 12.3899 102.53 11.9321 103.262 11.6786C104.172 11.3569 105.132 11.2024 106.097 11.2224C107.736 11.2224 109.024 11.566 109.963 12.2532C110.42 12.5716 110.799 12.9891 111.073 13.4746C111.346 13.96 111.507 14.501 111.542 15.0571Z" fill="#011F32"/>
</g>
<defs>
<clipPath id="clip0_412_4989">
<rect width="111.943" height="28.39" fill="white" transform="translate(0.0283203 0.826172)"/>
</clipPath>
</defs>
</svg>
