<svg width="21" height="21" viewBox="0 0 21 21" fill="none" xmlns="http://www.w3.org/2000/svg">
<path fill-rule="evenodd" clip-rule="evenodd" d="M4.54588 13.6023C4.54588 14.7657 3.60689 15.7047 2.44344 15.7047C1.27999 15.7047 0.341003 14.7626 0.341003 13.6023C0.341003 12.442 1.27999 11.4998 2.44344 11.4998H4.54588V13.6023ZM5.59551 13.6023C5.59551 12.4388 6.53448 11.4998 7.69795 11.4998C8.86139 11.4998 9.80037 12.4388 9.80037 13.6023V18.8568C9.80037 20.0202 8.86139 20.9592 7.69795 20.9592C6.53448 20.9592 5.59551 20.0202 5.59551 18.8568V13.6023Z" fill="#E01E5A"/>
<path fill-rule="evenodd" clip-rule="evenodd" d="M7.69795 5.1641C6.53448 5.1641 5.59551 4.22512 5.59551 3.06166C5.59551 1.89821 6.53448 0.959229 7.69795 0.959229C8.86139 0.959229 9.80037 1.89821 9.80037 3.06166V5.1641H7.69795ZM7.69795 6.22954C8.86139 6.22954 9.80037 7.16852 9.80037 8.33198C9.80037 9.49543 8.86139 10.4344 7.69795 10.4344H2.42763C1.26418 10.4344 0.325195 9.49227 0.325195 8.33198C0.325195 7.17169 1.26418 6.22954 2.42763 6.22954H7.69795Z" fill="#36C5F0"/>
<path fill-rule="evenodd" clip-rule="evenodd" d="M16.1204 8.33198C16.1204 7.16852 17.0593 6.22954 18.2228 6.22954C19.3862 6.22954 20.3252 7.16852 20.3252 8.33198C20.3252 9.49543 19.3862 10.4344 18.2228 10.4344H16.1204V8.33198ZM15.0707 8.33198C15.0707 9.49543 14.1317 10.4344 12.9683 10.4344C11.8048 10.4344 10.8658 9.49543 10.8658 8.33198V3.06166C10.8658 1.89821 11.8048 0.959229 12.9683 0.959229C14.1317 0.959229 15.0707 1.89821 15.0707 3.06166V8.33198Z" fill="#2EB67D"/>
<path fill-rule="evenodd" clip-rule="evenodd" d="M12.9683 16.7544C14.1317 16.7544 15.0707 17.6933 15.0707 18.8568C15.0707 20.0202 14.1317 20.9592 12.9683 20.9592C11.8048 20.9592 10.8658 20.0202 10.8658 18.8568V16.7544H12.9683ZM12.9683 15.7047C11.8048 15.7047 10.8658 14.7657 10.8658 13.6023C10.8658 12.4388 11.8048 11.4998 12.9683 11.4998H18.2386C19.402 11.4998 20.341 12.4388 20.341 13.6023C20.341 14.7657 19.402 15.7047 18.2386 15.7047H12.9683Z" fill="#ECB22E"/>
</svg>
