<svg width="21" height="21" viewBox="0 0 21 21" fill="none" xmlns="http://www.w3.org/2000/svg">
<path fill-rule="evenodd" clip-rule="evenodd" d="M17.9509 0.959229H2.70267C1.3909 0.959229 0.327002 2.02238 0.325214 3.33499V18.5706C0.322678 19.2032 0.572028 19.8108 1.01816 20.259C1.4643 20.7072 2.07047 20.9592 2.70267 20.9592H17.9509C18.5826 20.9584 19.1879 20.706 19.6334 20.2579C20.0788 19.8098 20.3277 19.2027 20.3252 18.5706V3.33499C20.3234 2.02363 19.2615 0.960995 17.9509 0.959229ZM8.95065 15.3645C8.9498 15.5759 8.86483 15.7783 8.71451 15.9269C8.5642 16.0755 8.36092 16.1581 8.14962 16.1564H4.81737C4.38154 16.1546 4.02917 15.8006 4.02917 15.3645V5.44144C4.02917 5.00532 4.38154 4.65128 4.81737 4.64952H8.14962C8.58598 4.65127 8.93928 5.0048 8.94103 5.44144L8.95065 15.3645ZM16.6405 10.8085C16.6405 11.0202 16.5558 11.2231 16.4053 11.3719C16.2548 11.5207 16.051 11.603 15.8394 11.6005H12.5072C12.0708 11.5987 11.7175 11.2451 11.7158 10.8085V5.44144C11.7175 5.0048 12.0708 4.65127 12.5072 4.64952H15.8394C16.2753 4.65128 16.6276 5.00532 16.6276 5.44144L16.6405 10.8085Z" fill="url(#paint0_linear_412_4464)"/>
<defs>
<linearGradient id="paint0_linear_412_4464" x1="3123.33" y1="1280.96" x2="3123.33" y2="0.959229" gradientUnits="userSpaceOnUse">
<stop stop-color="#0052CC"/>
<stop offset="1" stop-color="#2684FF"/>
</linearGradient>
</defs>
</svg>
