<svg width="20" height="21" viewBox="0 0 20 21" fill="none" xmlns="http://www.w3.org/2000/svg">
<path d="M14.2806 7.6786C14.3504 7.74826 14.4057 7.83097 14.4434 7.92202C14.4812 8.01307 14.5006 8.11067 14.5006 8.20923C14.5006 8.30779 14.4812 8.40539 14.4434 8.49643C14.4057 8.58748 14.3504 8.6702 14.2806 8.73985L9.03063 13.9899C8.96097 14.0596 8.87826 14.1149 8.78721 14.1526C8.69616 14.1904 8.59857 14.2098 8.5 14.2098C8.40144 14.2098 8.30385 14.1904 8.2128 14.1526C8.12175 14.1149 8.03903 14.0596 7.96938 13.9899L5.71938 11.7399C5.57865 11.5991 5.49959 11.4083 5.49959 11.2092C5.49959 11.0102 5.57865 10.8193 5.71938 10.6786C5.86011 10.5379 6.05098 10.4588 6.25 10.4588C6.44903 10.4588 6.6399 10.5379 6.78063 10.6786L8.5 12.3989L13.2194 7.6786C13.289 7.60887 13.3718 7.55355 13.4628 7.51581C13.5538 7.47807 13.6514 7.45864 13.75 7.45864C13.8486 7.45864 13.9462 7.47807 14.0372 7.51581C14.1283 7.55355 14.211 7.60887 14.2806 7.6786ZM19.75 10.4592C19.75 12.3876 19.1782 14.2727 18.1068 15.876C17.0355 17.4794 15.5127 18.7291 13.7312 19.4671C11.9496 20.205 9.98919 20.3981 8.09787 20.0219C6.20656 19.6457 4.46928 18.7171 3.10571 17.3535C1.74215 15.99 0.813554 14.2527 0.437348 12.3614C0.061142 10.47 0.254225 8.50964 0.992179 6.72806C1.73013 4.94649 2.97982 3.42374 4.58319 2.3524C6.18657 1.28106 8.07164 0.709229 10 0.709229C12.585 0.711958 15.0634 1.74006 16.8913 3.56795C18.7192 5.39584 19.7473 7.87421 19.75 10.4592ZM18.25 10.4592C18.25 8.82753 17.7661 7.23248 16.8596 5.87577C15.9531 4.51907 14.6646 3.46165 13.1571 2.83722C11.6497 2.2128 9.99085 2.04942 8.39051 2.36775C6.79017 2.68608 5.32016 3.47181 4.16637 4.6256C3.01259 5.77938 2.22685 7.24939 1.90853 8.84973C1.5902 10.4501 1.75358 12.1089 2.378 13.6164C3.00242 15.1239 4.05984 16.4123 5.41655 17.3189C6.77326 18.2254 8.36831 18.7092 10 18.7092C12.1873 18.7067 14.2843 17.8368 15.8309 16.2901C17.3775 14.7435 18.2475 12.6465 18.25 10.4592Z" fill="#606D85"/>
</svg>
